<svg width="25" height="24" viewBox="0 0 25 24" fill="none" xmlns="http://www.w3.org/2000/svg">
<path fill-rule="evenodd" clip-rule="evenodd" d="M2.39851 11.8099C7.64588 9.52373 11.1449 8.01653 12.8957 7.28833C17.8945 5.20916 18.9332 4.84799 19.6102 4.83606C19.7591 4.83344 20.0921 4.87034 20.3077 5.04534C20.4898 5.1931 20.5399 5.39271 20.5639 5.5328C20.5879 5.67289 20.6177 5.99203 20.594 6.2414C20.3231 9.08762 19.151 15.9946 18.5547 19.1825C18.3024 20.5314 17.8055 20.9836 17.3246 21.0279C16.2793 21.1241 15.4855 20.3371 14.4731 19.6734C12.8889 18.6349 11.9939 17.9885 10.4561 16.9751C8.67893 15.804 9.83099 15.1603 10.8438 14.1084C11.1088 13.8331 15.7144 9.64396 15.8036 9.26394C15.8147 9.21642 15.8251 9.03925 15.7198 8.94571C15.6146 8.85216 15.4592 8.88415 15.3471 8.90959C15.1882 8.94565 12.6574 10.6184 7.75463 13.9279C7.03626 14.4212 6.38559 14.6616 5.8026 14.649C5.15991 14.6351 3.92363 14.2856 3.00458 13.9868C1.87733 13.6204 0.981409 13.4267 1.05942 12.8044C1.10006 12.4803 1.54642 12.1488 2.39851 11.8099Z" fill="#4B6EFD"/>
</svg>
