<svg width="22" height="22" viewBox="0 0 22 22" fill="none" xmlns="http://www.w3.org/2000/svg">
    <path fill-rule="evenodd" clip-rule="evenodd"
        d="M19.6273 9.74057C20.1191 10.2251 20.1249 11.0165 19.6404 11.5083L11.6404 19.6273C11.4055 19.8658 11.0847 20 10.75 20C10.4153 20 10.0945 19.8658 9.85961 19.6273L1.85961 11.5083C1.37508 11.0165 1.38092 10.2251 1.87267 9.74057C2.36441 9.25603 3.15585 9.26187 3.64039 9.75362L9.5 15.7004L9.5 3.25C9.5 2.55964 10.0596 2 10.75 2C11.4404 2 12 2.55964 12 3.25L12 15.7004L17.8596 9.75362C18.3441 9.26187 19.1356 9.25603 19.6273 9.74057Z"
        fill="currentColor" />
</svg>
