<svg width="144" height="49" viewBox="0 0 144 49" fill="none" xmlns="http://www.w3.org/2000/svg">
<g clip-path="url(#clip0_69_608)">
<path d="M105.385 49V0.0153351H118.614V38.2846H138.315V49H105.385Z" fill="#428DFF"/>
<path d="M42.5099 32.3299C42.02 34.2501 41.3333 36.0277 40.4494 37.6627C38.4666 41.3143 35.6589 44.1207 32.0264 46.082C28.3939 48.0273 24.1032 49 19.1542 49H0.404785V32.3299H13.634V37.7106H18.6782C21.0893 37.7106 23.1435 37.3199 24.8408 36.5386C26.5539 35.7572 27.8546 34.4099 28.7429 32.4964C28.7689 32.4415 28.7943 32.386 28.8195 32.3299H42.5099ZM18.9638 0.0153351C23.9763 0.0153375 28.3067 0.996001 31.9551 2.9573C35.6193 4.90265 38.4428 7.7091 40.4256 11.3765C41.3131 12.998 42.0035 14.7625 42.4969 16.6701H28.79C28.7666 16.6192 28.7431 16.5688 28.7192 16.519C27.815 14.6055 26.4826 13.2581 24.7219 12.4767C22.977 11.6954 20.8355 11.3048 18.2975 11.3048H13.634V16.6701H0.404785V0.0153351H18.9638Z" fill="#428DFF"/>
<path d="M94.9997 32.3299C94.51 34.2501 93.8233 36.0277 92.9394 37.6627C90.9561 41.3143 88.1487 44.1207 84.516 46.082C80.8839 48.0273 76.5929 49 71.6437 49H52.8945V32.3299H66.1238V37.7106H71.168C73.5789 37.7106 75.6331 37.3199 77.3305 36.5386C79.0436 35.7572 80.3445 34.4098 81.2329 32.4964C81.2586 32.4415 81.2843 32.386 81.3094 32.3299H94.9997ZM71.4533 0.0153351C76.4662 0.0153377 80.7962 0.996006 84.4445 2.9573C88.109 4.90265 90.9326 7.7091 92.9154 11.3765C93.8026 12.998 94.4933 14.7625 94.9869 16.6701H81.2798C81.2563 16.6192 81.2329 16.5688 81.2089 16.519C80.3049 14.6055 78.9721 13.2581 77.2116 12.4767C75.4667 11.6954 73.3254 11.3048 70.7872 11.3048H66.1238V16.6701H52.8945V0.0153351H71.4533Z" fill="#428DFF"/>
<path d="M3.70302 27.11L1.91374 24.6454H1.16503V27.11H0.69043V21.8849H1.16503V24.2194H1.63456L3.55074 21.8849H4.11417L2.18784 24.2398L4.27152 27.11H3.70302ZM4.67443 27.11V26.6686H4.81148C5.02636 26.6686 5.19641 26.5972 5.32161 26.4543C5.44682 26.3097 5.53904 26.0784 5.59823 25.7604C5.65747 25.4423 5.69639 25.0239 5.71499 24.5051L5.80639 21.8849H8.85702V27.11H8.38242V22.3135H6.25815L6.1744 24.6097C6.15408 25.1625 6.10332 25.6243 6.02208 25.995C5.9409 26.3641 5.80549 26.6423 5.61604 26.8293C5.42821 27.0164 5.16256 27.11 4.81909 27.11H4.67443ZM10.2383 21.8849H10.7053V26.2655H10.7459L13.8245 21.8849H14.2864V27.11H13.8118V22.7345H13.7712L10.6977 27.11H10.2383V21.8849ZM15.6684 27.11V21.8849H16.143V24.2806H19.0921V21.8849H19.5667V27.11H19.0921V24.7092H16.143V27.11H15.6684ZM20.9448 21.8849H21.4118V26.2655H21.4524L24.531 21.8849H24.9929V27.11H24.5183V22.7345H24.4776L21.4042 27.11H20.9448V21.8849ZM26.3748 27.11V21.8849H26.8494V24.2806H29.7986V21.8849H30.2732V27.11H29.7986V24.7092H26.8494V27.11H26.3748ZM34.6867 21.8849V22.3135H32.1259V27.11H31.6513V21.8849H34.6867ZM39.8001 24.4975C39.8001 25.0418 39.7037 25.5154 39.5108 25.9185C39.3179 26.3199 39.0522 26.6312 38.7138 26.8523C38.3771 27.0717 37.9897 27.1814 37.5514 27.1814C37.1132 27.1814 36.7249 27.0717 36.3865 26.8523C36.0498 26.6312 35.785 26.3199 35.5921 25.9185C35.4009 25.5154 35.3053 25.0418 35.3053 24.4975C35.3053 23.9532 35.4009 23.4803 35.5921 23.079C35.785 22.6758 36.0506 22.3646 36.389 22.1452C36.7275 21.9241 37.1149 21.8135 37.5514 21.8135C37.9897 21.8135 38.3771 21.9241 38.7138 22.1452C39.0522 22.3646 39.3179 22.6758 39.5108 23.079C39.7037 23.4803 39.8001 23.9532 39.8001 24.4975ZM39.3382 24.4975C39.3382 24.0297 39.2603 23.6292 39.1047 23.2958C38.949 22.9608 38.7367 22.7048 38.4676 22.5279C38.1986 22.351 37.8932 22.2625 37.5514 22.2625C37.2113 22.2625 36.9068 22.351 36.6377 22.5279C36.3687 22.7048 36.1555 22.9599 35.9982 23.2933C35.8425 23.6266 35.7647 24.028 35.7647 24.4975C35.7647 24.9652 35.8425 25.3657 35.9982 25.6991C36.1539 26.0325 36.3662 26.2885 36.6352 26.467C36.9042 26.644 37.2097 26.7324 37.5514 26.7324C37.8932 26.7324 38.1986 26.644 38.4676 26.467C38.7384 26.2902 38.9516 26.035 39.1072 25.7017C39.2629 25.3666 39.3399 24.9652 39.3382 24.4975ZM40.9479 27.11V21.8849H42.7017C43.04 21.8849 43.3218 21.9445 43.5468 22.0635C43.7735 22.1826 43.9436 22.345 44.0569 22.5509C44.1703 22.7566 44.227 22.9905 44.227 23.2525C44.227 23.4702 44.1906 23.6564 44.1178 23.8112C44.0451 23.966 43.9461 24.091 43.8209 24.1862C43.6957 24.2815 43.5561 24.3503 43.4021 24.3929V24.4337C43.5696 24.4456 43.732 24.5051 43.8894 24.6123C44.0468 24.7177 44.1762 24.8657 44.2777 25.0562C44.3792 25.2467 44.43 25.4746 44.43 25.7399C44.43 26.0036 44.3716 26.2392 44.2549 26.4467C44.1381 26.6524 43.9588 26.8149 43.7169 26.934C43.4766 27.0513 43.1703 27.11 42.7981 27.11H40.9479ZM41.4225 26.6814H42.7981C43.1991 26.6814 43.4952 26.5921 43.6864 26.4135C43.8793 26.2349 43.9757 26.0104 43.9757 25.7399C43.9757 25.5409 43.9275 25.3606 43.831 25.1991C43.7363 25.0358 43.6018 24.9065 43.4275 24.8112C43.2549 24.716 43.0519 24.6684 42.8184 24.6684H41.4225V26.6814ZM41.4225 24.2449H42.7448C42.9495 24.2449 43.1289 24.2024 43.2828 24.1173C43.4368 24.0323 43.5569 23.9149 43.6432 23.7652C43.7295 23.6155 43.7727 23.4446 43.7727 23.2525C43.7727 22.9752 43.683 22.7498 43.5036 22.5763C43.3243 22.4012 43.0569 22.3135 42.7017 22.3135H41.4225V24.2449ZM45.5829 27.11H45.0854L46.9763 21.8849H47.4838L49.3746 27.11H48.8772L47.2478 22.5049H47.2123L45.5829 27.11ZM45.9407 25.1072H48.5193V25.5359H45.9407V25.1072ZM53.6156 27.11H53.141V22.3135H51.9507C51.6766 22.3135 51.449 22.3604 51.268 22.4539C51.0886 22.5474 50.9541 22.6801 50.8644 22.8519C50.7748 23.022 50.7299 23.221 50.7299 23.4489C50.7299 23.6768 50.7739 23.8741 50.8619 24.0408C50.9516 24.2075 51.0861 24.3359 51.2654 24.426C51.4465 24.5162 51.6724 24.5613 51.9431 24.5613H53.3593V24.9975H51.9304C51.5649 24.9975 51.2587 24.932 51.0116 24.8011C50.7646 24.6701 50.5777 24.4881 50.4507 24.2551C50.3255 24.0221 50.2629 23.7533 50.2629 23.4489C50.2629 23.1444 50.3255 22.8748 50.4507 22.6402C50.5777 22.4037 50.7646 22.2192 51.0116 22.0865C51.2604 21.9521 51.5691 21.8849 51.938 21.8849H53.6156V27.11ZM51.3238 24.7526H51.8593L50.5928 27.11H50.0447L51.3238 24.7526ZM60.02 27.11L58.231 24.6454H57.4823V27.11H57.0077V21.8849H57.4823V24.2194H57.9519L59.8681 21.8849H60.4315L58.5052 24.2398L60.5884 27.11H60.02ZM65.4846 24.4975C65.4846 25.0418 65.388 25.5154 65.1949 25.9185C65.0022 26.3199 64.7364 26.6312 64.3981 26.8523C64.0614 27.0717 63.6739 27.1814 63.2356 27.1814C62.7978 27.1814 62.4092 27.0717 62.0709 26.8523C61.7342 26.6312 61.4695 26.3199 61.2763 25.9185C61.0854 25.5154 60.9899 25.0418 60.9899 24.4975C60.9899 23.9532 61.0854 23.4803 61.2763 23.079C61.4695 22.6758 61.7353 22.3646 62.0736 22.1452C62.412 21.9241 62.7995 21.8135 63.2356 21.8135C63.6739 21.8135 64.0614 21.9241 64.3981 22.1452C64.7364 22.3646 65.0022 22.6758 65.1949 23.079C65.388 23.4803 65.4846 23.9532 65.4846 24.4975ZM65.0223 24.4975C65.0223 24.0297 64.9447 23.6292 64.7889 23.2958C64.6331 22.9608 64.421 22.7048 64.1518 22.5279C63.8833 22.351 63.5779 22.2625 63.2356 22.2625C62.8955 22.2625 62.5912 22.351 62.3221 22.5279C62.053 22.7048 61.8397 22.9599 61.6828 23.2933C61.527 23.6266 61.4488 24.028 61.4488 24.4975C61.4488 24.9652 61.527 25.3657 61.6828 25.6991C61.838 26.0325 62.0508 26.2885 62.3193 26.467C62.5884 26.644 62.8939 26.7324 63.2356 26.7324C63.5779 26.7324 63.8833 26.644 64.1518 26.467C64.4226 26.2902 64.6359 26.035 64.7917 25.7017C64.9475 25.3666 65.024 24.9652 65.0223 24.4975ZM66.6321 21.8849H67.1804L69.0659 26.4364H69.1117L70.9978 21.8849H71.5456V27.11H71.0989V22.8927H71.0587L69.3049 27.11H68.8733L67.1195 22.8927H67.0787V27.11H66.6321V21.8849ZM76.6356 21.8849V27.11H76.1637V22.3135H73.3642V27.11H72.8896V21.8849H76.6356ZM77.9885 27.11H77.491L79.3816 21.8849H79.8897L81.7803 27.11H81.2828L79.6535 22.5049H79.6178L77.9885 27.11ZM78.3464 25.1072H80.9249V25.5359H78.3464V25.1072ZM82.6708 27.11V21.8849H83.1454V24.2806H86.0947V21.8849H86.5693V27.11H86.0947V24.7092H83.1454V27.11H82.6708ZM87.9473 21.8849H88.4146V26.2655H88.4548L91.5336 21.8849H91.9954V27.11H91.5208V22.7345H91.4806L88.4068 27.11H87.9473V21.8849ZM96.7274 27.11H96.2528V22.3135H95.063C94.7888 22.3135 94.561 22.3604 94.3801 22.4539C94.2009 22.5474 94.0663 22.6801 93.9764 22.8519C93.8865 23.022 93.8419 23.221 93.8419 23.4489C93.8419 23.6768 93.886 23.8741 93.9742 24.0408C94.0635 24.2075 94.1981 24.3359 94.3773 24.426C94.5588 24.5162 94.7844 24.5613 95.0552 24.5613H96.4712V24.9975H95.0423C94.6772 24.9975 94.3706 24.932 94.1238 24.8011C93.8765 24.6701 93.6894 24.4881 93.5627 24.2551C93.4376 24.0221 93.3751 23.7533 93.3751 23.4489C93.3751 23.1444 93.4376 22.8748 93.5627 22.6402C93.6894 22.4037 93.8765 22.2192 94.1238 22.0865C94.3723 21.9521 94.6811 21.8849 95.0501 21.8849H96.7274V27.11ZM94.436 24.7526H94.9714L93.7051 27.11H93.1568L94.436 24.7526Z" fill="#5195E5"/>
<path d="M104.661 18.403C104.661 17.4007 105.469 16.5882 106.466 16.5882H118.736C119.733 16.5882 120.541 17.4007 120.541 18.403V30.953C120.541 31.9553 119.733 32.7678 118.736 32.7678H106.466C105.469 32.7678 104.661 31.9553 104.661 30.953V18.403Z" fill="white"/>
<path d="M112.782 34.4815L111.699 30.6704L113.143 30.4889L117.835 31.2148L123.609 37.3852L123.429 39.2L114.586 39.563L112.421 39.2L112.06 37.9296L112.782 34.4815Z" fill="white"/>
<path d="M106.466 29.6722V17.15H127.037L127.94 17.4222V19.8722L127.759 32.1222C127.601 32.1222 124.691 32.4852 124.691 31.1241H107.729C106.718 31.1241 106.466 30.1562 106.466 29.6722Z" fill="#7FACFA"/>
<path d="M123.248 38.0204H121.624C120.06 36.871 116.932 34.5359 116.932 34.3907C116.932 34.2455 115.368 30.0957 114.586 28.0389L114.045 17.3315L114.406 16.2426L116.391 16.0611L116.932 14.6092L118.015 13.8833L119.278 14.4278L119.458 16.0611L120 16.6055L121.263 16.4241L122.165 17.15L121.985 23.5018H123.97L124.692 24.0463V32.5759L123.428 35.1166L123.248 38.0204Z" fill="#CAD9FC"/>
<path d="M113.323 31.1241H112.421L111.699 30.5796V19.8722L112.601 19.1463L114.045 18.6018L114.406 16.9685L115.128 16.2426L116.752 16.4241C116.571 15.9401 116.716 15.1537 117.293 15.1537C118.195 15.1537 118.376 15.679 118.376 16.6055C118.376 18.4204 120.902 16.4241 120.902 19.5092V23.5018C120.902 25.3166 123.609 23.5018 123.609 26.587V32.2129C123.609 32.9389 122.887 34.1185 122.707 34.4815C122.433 35.0324 122.165 36.1148 122.346 38.0204H114.226C113.504 38.0204 113.241 37.1463 113.684 35.6611C114.226 33.8463 113.925 32.1525 113.323 31.1241Z" fill="#E8EDFC"/>
<path d="M125.233 18.5111H122.346V23.4111L123.248 23.2296L124.511 23.9555L124.872 24.3185V32.1222H126.857V19.9629C126.857 18.8015 125.774 18.5111 125.233 18.5111Z" fill="#A4C2F7"/>
<path d="M116.29 23.4221V17.15C116.29 16.9095 116.201 16.7624 116.084 16.6651C115.953 16.5569 115.757 16.4875 115.538 16.4875C115.318 16.4875 115.122 16.5569 114.992 16.6651C114.874 16.7624 114.785 16.9095 114.785 17.15V23.4221C114.785 23.7328 114.534 23.9846 114.225 23.9846C113.916 23.9846 113.666 23.7328 113.666 23.4221V20.5981L113.665 20.5205C113.65 20.1418 113.528 19.9022 113.395 19.7602C113.251 19.606 113.062 19.5316 112.873 19.5319C112.685 19.5324 112.495 19.6079 112.349 19.7634C112.207 19.9158 112.078 20.178 112.078 20.5981V28.4018C112.078 29.084 112.169 29.8603 112.289 30.5406C112.412 31.2312 112.557 31.7736 112.649 32.0003L112.764 32.2849C113.038 32.9738 113.341 33.8308 113.341 34.7537C113.341 35.6433 113.192 36.2438 113.049 36.7457C112.907 37.2461 112.8 37.5713 112.8 38.0204C112.8 38.3327 112.892 38.4739 112.983 38.5506C113.092 38.6423 113.303 38.7282 113.684 38.7282H122.165C122.694 38.7282 122.786 38.5961 122.804 38.568C122.861 38.4817 122.899 38.2948 122.875 37.8453C122.834 37.069 122.6 35.7135 123.304 34.4747C123.708 33.7626 124.132 33.3844 124.132 32.2129V24.5907C124.132 24.1841 124.012 23.9351 123.886 23.7946C123.758 23.6526 123.595 23.588 123.437 23.588C123.164 23.588 122.733 23.809 122.725 24.5964V26.9255C122.728 27.2666 122.732 27.5927 122.73 27.9145L122.725 28.3228C122.718 28.6312 122.466 28.8768 122.159 28.8736C121.853 28.8703 121.606 28.6195 121.606 28.3111V26.933C121.605 26.8417 121.604 26.7486 121.603 26.6537C121.597 26.0543 121.591 25.3838 121.606 24.5804V18.1481C121.606 17.8744 121.546 17.6699 121.464 17.5215L121.427 17.4612C121.224 17.1537 120.874 17.051 120.582 17.1408C120.326 17.2193 120.018 17.4848 120.018 18.1481V23.4221L120.015 23.4795C119.986 23.7633 119.748 23.9846 119.459 23.9846C119.15 23.9846 118.899 23.7328 118.899 23.4221V15.1537C118.899 14.8456 118.793 14.6593 118.672 14.5465C118.541 14.4257 118.355 14.3551 118.154 14.3551C117.953 14.3551 117.767 14.4257 117.637 14.5465C117.515 14.6593 117.409 14.8456 117.409 15.1537V23.4221L117.406 23.4795C117.378 23.7633 117.139 23.9846 116.85 23.9846C116.541 23.9846 116.29 23.7328 116.29 23.4221ZM122.725 22.6175C122.945 22.5165 123.186 22.4629 123.437 22.4629C123.907 22.4629 124.372 22.6592 124.714 23.0389C125.058 23.4202 125.251 23.9539 125.251 24.5907V31.6504H126.677C127.049 31.6504 127.253 31.5321 127.367 31.4214C127.482 31.3106 127.54 31.1746 127.561 31.0734V18.7833C127.561 18.1948 127.374 17.9712 127.243 17.8724C127.082 17.7508 126.863 17.7125 126.677 17.7125H122.69C122.713 17.8517 122.725 17.997 122.725 18.1481V22.6175ZM120.018 16.1561C120.094 16.1204 120.173 16.09 120.255 16.065C120.915 15.8621 121.662 16.0466 122.162 16.5875H126.677C126.971 16.5875 127.474 16.64 127.914 16.972C128.275 17.2438 128.531 17.6554 128.632 18.2208H134.797C135.106 18.2208 135.356 18.4726 135.356 18.7833C135.356 19.094 135.106 19.3458 134.797 19.3458H128.68V22.1184H131.549L131.606 22.1212C131.888 22.15 132.108 22.3896 132.108 22.6809C132.108 22.9722 131.888 23.2118 131.606 23.2406L131.549 23.2434H128.68V26.0245H135.88C136.189 26.0245 136.439 26.2763 136.439 26.587C136.439 26.8977 136.189 27.1495 135.88 27.1495H128.68V30.3801H137.684L137.741 30.3829C138.023 30.4117 138.243 30.6513 138.243 30.9426C138.243 31.2339 138.023 31.4735 137.741 31.5023L137.684 31.5051H128.601C128.518 31.7509 128.373 32.0109 128.142 32.2332C127.803 32.5611 127.314 32.7755 126.677 32.7755H125.22C125.085 33.9455 124.551 34.5468 124.275 35.0326C123.778 35.9078 123.941 36.8209 123.992 37.7846C124.015 38.205 124.023 38.7563 123.736 39.1904C123.411 39.683 122.845 39.8532 122.165 39.8532H113.684C113.163 39.8532 112.652 39.7394 112.265 39.4137C111.86 39.073 111.681 38.579 111.681 38.0204C111.681 37.3806 111.845 36.889 111.973 36.4366C112.101 35.9858 112.223 35.4974 112.223 34.7537C112.223 34.076 112.006 33.4206 111.753 32.7755H106.827C106.575 32.7755 106.059 32.7822 105.604 32.5993C105.364 32.5027 105.114 32.3437 104.927 32.0829C104.737 31.8185 104.644 31.494 104.644 31.1241C104.644 30.8133 104.894 30.5615 105.203 30.5615C105.512 30.5615 105.762 30.8133 105.762 31.1241C105.762 31.2985 105.804 31.3824 105.834 31.4243C105.867 31.4696 105.922 31.5149 106.019 31.5544C106.241 31.6436 106.537 31.6504 106.827 31.6504H111.379C111.312 31.3765 111.246 31.0653 111.188 30.7384C111.06 30.0177 110.959 29.1715 110.959 28.4018V20.5981C110.959 19.9355 111.169 19.384 111.534 18.9932C111.896 18.6054 112.383 18.408 112.871 18.4069C113.143 18.4063 113.415 18.4668 113.666 18.588V17.7125H106.466C106.143 17.7125 105.995 17.8352 105.91 17.955C105.803 18.1034 105.762 18.2987 105.762 18.4204V26.587C105.762 26.8977 105.512 27.1495 105.203 27.1495C104.894 27.1495 104.644 26.8977 104.644 26.587V18.4204C104.644 18.1186 104.729 17.6786 105.002 17.2978C105.295 16.8883 105.778 16.5875 106.466 16.5875H113.75C113.85 16.267 114.036 15.9995 114.279 15.7974C114.641 15.4973 115.101 15.3625 115.538 15.3625C115.788 15.3625 116.047 15.4069 116.29 15.5018V15.1537C116.29 14.5544 116.511 14.0601 116.878 13.7192C117.237 13.3865 117.703 13.2301 118.154 13.2301C118.605 13.2301 119.071 13.3864 119.43 13.7192C119.798 14.0601 120.018 14.5544 120.018 15.1537V16.1561Z" fill="#428DFF"/>
<path d="M126.26 11.4681C126.042 11.6878 125.688 11.6877 125.469 11.4681C125.251 11.2483 125.251 10.8924 125.469 10.6727L126.371 9.76525C126.59 9.54554 126.944 9.54554 127.162 9.76525C127.381 9.98496 127.381 10.3409 127.162 10.5606L126.26 11.4681Z" fill="#428DFF"/>
<path d="M123.978 11.5277C124.197 11.708 124.521 11.695 124.726 11.489C124.931 11.283 124.944 10.9571 124.765 10.7362L124.726 10.6936L123.824 9.78623C123.605 9.56654 123.251 9.56658 123.033 9.78623C122.815 10.0059 122.815 10.3619 123.033 10.5816L123.935 11.489L123.978 11.5277Z" fill="#428DFF"/>
<path d="M123.781 13.9568C123.562 14.1371 123.237 14.1242 123.033 13.9182C122.814 13.6985 122.814 13.3425 123.033 13.1228L123.935 12.2154C124.153 11.9957 124.507 11.9957 124.726 12.2154C124.944 12.4351 124.944 12.791 124.726 13.0108L123.824 13.9182L123.781 13.9568Z" fill="#428DFF"/>
<path d="M126.413 13.9777C126.633 14.158 126.957 14.145 127.162 13.9391C127.38 13.7194 127.38 13.3633 127.162 13.1437L126.26 12.2362L126.217 12.1976C125.998 12.0173 125.673 12.0302 125.468 12.2362C125.25 12.4559 125.25 12.812 125.468 13.0316L126.371 13.9391L126.413 13.9777Z" fill="#428DFF"/>
<path d="M138.437 23.2625C138.128 23.2625 137.878 23.0108 137.878 22.7001C137.878 22.3894 138.128 22.1376 138.437 22.1376L139.713 22.1376C140.022 22.1376 140.272 22.3894 140.272 22.7001C140.272 23.0108 140.022 23.2625 139.713 23.2625L138.437 23.2625Z" fill="#428DFF"/>
<path d="M136.782 21.6814C136.81 21.9652 137.048 22.1865 137.338 22.1865C137.628 22.1864 137.866 21.9652 137.895 21.6814L137.897 21.624L137.897 20.3408C137.897 20.0301 137.647 19.7784 137.338 19.7783C137.029 19.7783 136.779 20.03 136.779 20.3408L136.779 21.624L136.782 21.6814Z" fill="#428DFF"/>
<path d="M134.935 23.2597C134.653 23.231 134.433 22.9914 134.433 22.7C134.433 22.3893 134.683 22.1376 134.992 22.1376L136.268 22.1376C136.577 22.1376 136.827 22.3893 136.827 22.7C136.827 23.0107 136.577 23.2625 136.268 23.2625L134.992 23.2625L134.935 23.2597Z" fill="#428DFF"/>
<path d="M136.781 25.1463C136.809 25.43 137.048 25.6513 137.337 25.6513C137.646 25.6513 137.897 25.3995 137.897 25.0889L137.897 23.8056L137.894 23.7482C137.865 23.4644 137.627 23.2429 137.337 23.2429C137.028 23.243 136.778 23.4948 136.778 23.8053L136.778 25.0886L136.781 25.1463Z" fill="#428DFF"/>
</g>
<defs>
<clipPath id="clip0_69_608">
<rect width="144" height="49" fill="white"/>
</clipPath>
</defs>
</svg>
