<svg width="144" height="144" xmlns="http://www.w3.org/2000/svg" fill="none">
 <defs>
  <clipPath id="clip0_69_608">
   <rect id="svg_1" fill="white" height="49" width="144"/>
  </clipPath>
 </defs>
 <g>
  <title>Layer 1</title>
  <g id="svg_63">
   <path id="svg_3" fill="#428DFF" d="m107.04661,96.49233l0,-48.98466l13.229,0l0,38.26926l19.701,0l0,10.7154l-32.93,0z"/>
   <path id="svg_4" fill="#428DFF" d="m44.17151,79.82223c-0.4899,1.9202 -1.1766,3.6978 -2.0605,5.3328c-1.9828,3.6516 -4.7905,6.458 -8.423,8.4193c-3.6325,1.9453 -7.9232,2.918 -12.8722,2.918l-18.74941,0l0,-16.6701l13.22921,0l0,5.3807l5.0442,0c2.4111,0 4.4653,-0.3907 6.1626,-1.172c1.7131,-0.7814 3.0138,-2.1287 3.9021,-4.0422c0.026,-0.0549 0.0514,-0.1104 0.0766,-0.1665l13.6904,0zm-23.5461,-32.31456c5.0125,0 9.3429,0.98066 12.9913,2.94196c3.6642,1.94535 6.4877,4.7518 8.4705,8.4192c0.8875,1.6215 1.5779,3.386 2.0713,5.2936l-13.7069,0c-0.0234,-0.0509 -0.0469,-0.1013 -0.0708,-0.1511c-0.9042,-1.9135 -2.2366,-3.2609 -3.9973,-4.0423c-1.7449,-0.7813 -3.8864,-1.1719 -6.4244,-1.1719l-4.6635,0l0,5.3653l-13.22921,0l0,-16.65476l18.55901,0z"/>
   <path id="svg_5" fill="#428DFF" d="m96.66131,79.82223c-0.4897,1.9202 -1.1764,3.6978 -2.0603,5.3328c-1.9833,3.6516 -4.7907,6.458 -8.4234,8.4193c-3.6321,1.9453 -7.9231,2.918 -12.8723,2.918l-18.7492,0l0,-16.6701l13.2293,0l0,5.3807l5.0442,0c2.4109,0 4.4651,-0.3907 6.1625,-1.172c1.7131,-0.7814 3.014,-2.1288 3.9024,-4.0422c0.0257,-0.0549 0.0514,-0.1104 0.0765,-0.1665l13.6903,0zm-23.5464,-32.31456c5.0129,0 9.3429,0.98067 12.9912,2.94196c3.6645,1.94535 6.4881,4.7518 8.4709,8.4192c0.8872,1.6215 1.5779,3.386 2.0715,5.2936l-13.7071,0c-0.0235,-0.0509 -0.0469,-0.1013 -0.0709,-0.1511c-0.904,-1.9135 -2.2368,-3.2609 -3.9973,-4.0423c-1.7449,-0.7813 -3.8862,-1.1719 -6.4244,-1.1719l-4.6634,0l0,5.3653l-13.2293,0l0,-16.65476l18.5588,0z"/>
   <path id="svg_6" fill="#5195E5" d="m5.36463,74.60233l-1.78928,-2.4646l-0.74871,0l0,2.4646l-0.4746,0l0,-5.2251l0.4746,0l0,2.3345l0.46953,0l1.91618,-2.3345l0.56343,0l-1.92633,2.3549l2.08368,2.8702l-0.5685,0zm0.97141,0l0,-0.4414l0.13705,0c0.21488,0 0.38493,-0.0714 0.51013,-0.2143c0.12521,-0.1446 0.21743,-0.3759 0.27662,-0.6939c0.05924,-0.3181 0.09816,-0.7365 0.11676,-1.2553l0.0914,-2.6202l3.05063,0l0,5.2251l-0.4746,0l0,-4.7965l-2.12427,0l-0.08375,2.2962c-0.02032,0.5528 -0.07108,1.0146 -0.15232,1.3853c-0.08118,0.3691 -0.21659,0.6473 -0.40604,0.8343c-0.18783,0.1871 -0.45348,0.2807 -0.79695,0.2807l-0.14466,0zm5.56387,-5.2251l0.467,0l0,4.3806l0.0406,0l3.0786,-4.3806l0.4619,0l0,5.2251l-0.4746,0l0,-4.3755l-0.0406,0l-3.0735,4.3755l-0.4594,0l0,-5.2251zm5.4301,5.2251l0,-5.2251l0.4746,0l0,2.3957l2.9491,0l0,-2.3957l0.4746,0l0,5.2251l-0.4746,0l0,-2.4008l-2.9491,0l0,2.4008l-0.4746,0zm5.2764,-5.2251l0.467,0l0,4.3806l0.0406,0l3.0786,-4.3806l0.4619,0l0,5.2251l-0.4746,0l0,-4.3755l-0.0407,0l-3.0734,4.3755l-0.4594,0l0,-5.2251zm5.43,5.2251l0,-5.2251l0.4746,0l0,2.3957l2.9492,0l0,-2.3957l0.4746,0l0,5.2251l-0.4746,0l0,-2.4008l-2.9492,0l0,2.4008l-0.4746,0zm8.3119,-5.2251l0,0.4286l-2.5608,0l0,4.7965l-0.4746,0l0,-5.2251l3.0354,0zm5.1134,2.6126c0,0.5443 -0.0964,1.0179 -0.2893,1.421c-0.1929,0.4014 -0.4586,0.7127 -0.797,0.9338c-0.3367,0.2194 -0.7241,0.3291 -1.1624,0.3291c-0.4382,0 -0.8265,-0.1097 -1.1649,-0.3291c-0.3367,-0.2211 -0.6015,-0.5324 -0.7944,-0.9338c-0.1912,-0.4031 -0.2868,-0.8767 -0.2868,-1.421c0,-0.5443 0.0956,-1.0172 0.2868,-1.4185c0.1929,-0.4032 0.4585,-0.7144 0.7969,-0.9338c0.3385,-0.2211 0.7259,-0.3317 1.1624,-0.3317c0.4383,0 0.8257,0.1106 1.1624,0.3317c0.3384,0.2194 0.6041,0.5306 0.797,0.9338c0.1929,0.4013 0.2893,0.8742 0.2893,1.4185zm-0.4619,0c0,-0.4678 -0.0779,-0.8683 -0.2335,-1.2017c-0.1557,-0.335 -0.368,-0.591 -0.6371,-0.7679c-0.269,-0.1769 -0.5744,-0.2654 -0.9162,-0.2654c-0.3401,0 -0.6446,0.0885 -0.9137,0.2654c-0.269,0.1769 -0.4822,0.432 -0.6395,0.7654c-0.1557,0.3333 -0.2335,0.7347 -0.2335,1.2042c0,0.4677 0.0778,0.8682 0.2335,1.2016c0.1557,0.3334 0.368,0.5894 0.637,0.7679c0.269,0.177 0.5745,0.2654 0.9162,0.2654c0.3418,0 0.6472,-0.0884 0.9162,-0.2654c0.2708,-0.1768 0.484,-0.432 0.6396,-0.7653c0.1557,-0.3351 0.2327,-0.7365 0.231,-1.2042zm1.6097,2.6125l0,-5.2251l1.7538,0c0.3383,0 0.6201,0.0596 0.8451,0.1786c0.2267,0.1191 0.3968,0.2815 0.5101,0.4874c0.1134,0.2057 0.1701,0.4396 0.1701,0.7016c0,0.2177 -0.0364,0.4039 -0.1092,0.5587c-0.0727,0.1548 -0.1717,0.2798 -0.2969,0.375c-0.1252,0.0953 -0.2648,0.1641 -0.4188,0.2067l0,0.0408c0.1675,0.0119 0.3299,0.0714 0.4873,0.1786c0.1574,0.1054 0.2868,0.2534 0.3883,0.4439c0.1015,0.1905 0.1523,0.4184 0.1523,0.6837c0,0.2637 -0.0584,0.4993 -0.1751,0.7068c-0.1168,0.2057 -0.2961,0.3682 -0.538,0.4873c-0.2403,0.1173 -0.5466,0.176 -0.9188,0.176l-1.8502,0zm0.4746,-0.4286l1.3756,0c0.401,0 0.6971,-0.0893 0.8883,-0.2679c0.1929,-0.1786 0.2893,-0.4031 0.2893,-0.6736c0,-0.199 -0.0482,-0.3793 -0.1447,-0.5408c-0.0947,-0.1633 -0.2292,-0.2926 -0.4035,-0.3879c-0.1726,-0.0952 -0.3756,-0.1428 -0.6091,-0.1428l-1.3959,0l0,2.013zm0,-2.4365l1.3223,0c0.2047,0 0.3841,-0.0425 0.538,-0.1276c0.154,-0.085 0.2741,-0.2024 0.3604,-0.3521c0.0863,-0.1497 0.1295,-0.3206 0.1295,-0.5127c0,-0.2773 -0.0897,-0.5027 -0.2691,-0.6762c-0.1793,-0.1751 -0.4467,-0.2628 -0.8019,-0.2628l-1.2792,0l0,1.9314zm4.1604,2.8651l-0.4975,0l1.8909,-5.2251l0.5075,0l1.8908,5.2251l-0.4974,0l-1.6294,-4.6051l-0.0355,0l-1.6294,4.6051zm0.3578,-2.0028l2.5786,0l0,0.4287l-2.5786,0l0,-0.4287zm7.6749,2.0028l-0.4746,0l0,-4.7965l-1.1903,0c-0.2741,0 -0.5017,0.0469 -0.6827,0.1404c-0.1794,0.0935 -0.3139,0.2262 -0.4036,0.398c-0.0896,0.1701 -0.1345,0.3691 -0.1345,0.597c0,0.2279 0.044,0.4252 0.132,0.5919c0.0897,0.1667 0.2242,0.2951 0.4035,0.3852c0.1811,0.0902 0.407,0.1353 0.6777,0.1353l1.4162,0l0,0.4362l-1.4289,0c-0.3655,0 -0.6717,-0.0655 -0.9188,-0.1964c-0.247,-0.131 -0.4339,-0.313 -0.5609,-0.546c-0.1252,-0.233 -0.1878,-0.5018 -0.1878,-0.8062c0,-0.3045 0.0626,-0.5741 0.1878,-0.8087c0.127,-0.2365 0.3139,-0.421 0.5609,-0.5537c0.2488,-0.1344 0.5575,-0.2016 0.9264,-0.2016l1.6776,0l0,5.2251zm-2.2918,-2.3574l0.5355,0l-1.2665,2.3574l-0.5481,0l1.2791,-2.3574zm8.6962,2.3574l-1.789,-2.4646l-0.7487,0l0,2.4646l-0.4746,0l0,-5.2251l0.4746,0l0,2.3345l0.4696,0l1.9162,-2.3345l0.5634,0l-1.9263,2.3549l2.0832,2.8702l-0.5684,0zm5.4646,-2.6125c0,0.5443 -0.0966,1.0179 -0.2897,1.421c-0.1927,0.4014 -0.4585,0.7127 -0.7968,0.9338c-0.3367,0.2194 -0.7242,0.3291 -1.1625,0.3291c-0.4378,0 -0.8264,-0.1097 -1.1647,-0.3291c-0.3367,-0.2211 -0.6014,-0.5324 -0.7946,-0.9338c-0.1909,-0.4031 -0.2864,-0.8767 -0.2864,-1.421c0,-0.5443 0.0955,-1.0172 0.2864,-1.4185c0.1932,-0.4032 0.459,-0.7144 0.7973,-0.9338c0.3384,-0.2211 0.7259,-0.3317 1.162,-0.3317c0.4383,0 0.8258,0.1106 1.1625,0.3317c0.3383,0.2194 0.6041,0.5306 0.7968,0.9338c0.1931,0.4013 0.2897,0.8742 0.2897,1.4185zm-0.4623,0c0,-0.4678 -0.0776,-0.8683 -0.2334,-1.2017c-0.1558,-0.335 -0.3679,-0.591 -0.6371,-0.7679c-0.2685,-0.1769 -0.5739,-0.2654 -0.9162,-0.2654c-0.3401,0 -0.6444,0.0885 -0.9135,0.2654c-0.2691,0.1769 -0.4824,0.432 -0.6393,0.7654c-0.1558,0.3333 -0.234,0.7347 -0.234,1.2042c0,0.4677 0.0782,0.8682 0.234,1.2016c0.1552,0.3334 0.368,0.5894 0.6365,0.7679c0.2691,0.177 0.5746,0.2654 0.9163,0.2654c0.3423,0 0.6477,-0.0884 0.9162,-0.2654c0.2708,-0.1768 0.4841,-0.432 0.6399,-0.7653c0.1558,-0.3351 0.2323,-0.7365 0.2306,-1.2042zm1.6098,-2.6126l0.5483,0l1.8855,4.5515l0.0458,0l1.8861,-4.5515l0.5478,0l0,5.2251l-0.4467,0l0,-4.2173l-0.0402,0l-1.7538,4.2173l-0.4316,0l-1.7538,-4.2173l-0.0408,0l0,4.2173l-0.4466,0l0,-5.2251zm10.0035,0l0,5.2251l-0.4719,0l0,-4.7965l-2.7995,0l0,4.7965l-0.4746,0l0,-5.2251l3.746,0zm1.3529,5.2251l-0.4975,0l1.8906,-5.2251l0.5081,0l1.8906,5.2251l-0.4975,0l-1.6293,-4.6051l-0.0357,0l-1.6293,4.6051zm0.3579,-2.0028l2.5785,0l0,0.4287l-2.5785,0l0,-0.4287zm4.3244,2.0028l0,-5.2251l0.4746,0l0,2.3957l2.9493,0l0,-2.3957l0.4746,0l0,5.2251l-0.4746,0l0,-2.4008l-2.9493,0l0,2.4008l-0.4746,0zm5.2765,-5.2251l0.4673,0l0,4.3806l0.0402,0l3.0788,-4.3806l0.4618,0l0,5.2251l-0.4746,0l0,-4.3755l-0.0402,0l-3.0738,4.3755l-0.4595,0l0,-5.2251zm8.7801,5.2251l-0.4746,0l0,-4.7965l-1.1898,0c-0.2742,0 -0.502,0.0469 -0.6829,0.1404c-0.1792,0.0935 -0.3138,0.2262 -0.4037,0.398c-0.0899,0.1701 -0.1345,0.3691 -0.1345,0.597c0,0.2279 0.0441,0.4252 0.1323,0.5919c0.0893,0.1667 0.2239,0.2951 0.4031,0.3852c0.1815,0.0902 0.4071,0.1353 0.6779,0.1353l1.416,0l0,0.4362l-1.4289,0c-0.3651,0 -0.6717,-0.0655 -0.9185,-0.1964c-0.2473,-0.131 -0.4344,-0.313 -0.5611,-0.546c-0.1251,-0.233 -0.1876,-0.5018 -0.1876,-0.8062c0,-0.3045 0.0625,-0.5741 0.1876,-0.8087c0.1267,-0.2365 0.3138,-0.421 0.5611,-0.5537c0.2485,-0.1344 0.5573,-0.2016 0.9263,-0.2016l1.6773,0l0,5.2251zm-2.2914,-2.3574l0.5354,0l-1.2663,2.3574l-0.5483,0l1.2792,-2.3574z"/>
   <path id="svg_7" fill="white" d="m106.32261,65.89533c0,-1.0023 0.808,-1.8148 1.805,-1.8148l12.27,0c0.997,0 1.805,0.8125 1.805,1.8148l0,12.55c0,1.0023 -0.808,1.8148 -1.805,1.8148l-12.27,0c-0.997,0 -1.805,-0.8125 -1.805,-1.8148l0,-12.55z"/>
   <path id="svg_8" fill="white" d="m114.44361,81.97383l-1.083,-3.8111l1.444,-0.1815l4.692,0.7259l5.774,6.1704l-0.18,1.8148l-8.843,0.363l-2.165,-0.363l-0.361,-1.2704l0.722,-3.4481z"/>
   <path id="svg_9" fill="#7FACFA" d="m108.12761,77.16453l0,-12.5222l20.571,0l0.903,0.2722l0,2.45l-0.181,12.25c-0.158,0 -3.068,0.363 -3.068,-0.9981l-16.962,0c-1.011,0 -1.263,-0.9679 -1.263,-1.4519z"/>
   <path id="svg_10" fill="#CAD9FC" d="m124.90961,85.51273l-1.624,0c-1.564,-1.1494 -4.692,-3.4845 -4.692,-3.6297c0,-0.1452 -1.564,-4.295 -2.346,-6.3518l-0.541,-10.7074l0.361,-1.0889l1.985,-0.1815l0.541,-1.4519l1.083,-0.7259l1.263,0.5445l0.18,1.6333l0.542,0.5444l1.263,-0.1814l0.902,0.7259l-0.18,6.3518l1.985,0l0.722,0.5445l0,8.5296l-1.264,2.5407l-0.18,2.9038z"/>
   <path id="svg_11" fill="#E8EDFC" d="m114.98461,78.61643l-0.902,0l-0.722,-0.5445l0,-10.7074l0.902,-0.7259l1.444,-0.5445l0.361,-1.6333l0.722,-0.7259l1.624,0.1815c-0.181,-0.484 -0.036,-1.2704 0.541,-1.2704c0.902,0 1.083,0.5253 1.083,1.4518c0,1.8149 2.526,-0.1814 2.526,2.9037l0,3.9926c0,1.8148 2.707,0 2.707,3.0852l0,5.6259c0,0.726 -0.722,1.9056 -0.902,2.2686c-0.274,0.5509 -0.542,1.6333 -0.361,3.5389l-8.12,0c-0.722,0 -0.985,-0.8741 -0.542,-2.3593c0.542,-1.8148 0.241,-3.5086 -0.361,-4.537z"/>
   <path id="svg_12" fill="#A4C2F7" d="m126.89461,66.00343l-2.887,0l0,4.9l0.902,-0.1815l1.263,0.7259l0.361,0.363l0,7.8037l1.985,0l0,-12.1593c0,-1.1614 -1.083,-1.4518 -1.624,-1.4518z"/>
   <path id="svg_13" fill="#428DFF" d="m117.95161,70.91443l0,-6.2721c0,-0.2405 -0.089,-0.3876 -0.206,-0.4849c-0.131,-0.1082 -0.327,-0.1776 -0.546,-0.1776c-0.22,0 -0.416,0.0694 -0.546,0.1776c-0.118,0.0973 -0.207,0.2444 -0.207,0.4849l0,6.2721c0,0.3107 -0.251,0.5625 -0.56,0.5625c-0.309,0 -0.559,-0.2518 -0.559,-0.5625l0,-2.824l-0.001,-0.0776c-0.015,-0.3787 -0.137,-0.6183 -0.27,-0.7603c-0.144,-0.1542 -0.333,-0.2286 -0.522,-0.2283c-0.188,0.0005 -0.378,0.076 -0.524,0.2315c-0.142,0.1524 -0.271,0.4146 -0.271,0.8347l0,7.8037c0,0.6822 0.091,1.4585 0.211,2.1388c0.123,0.6906 0.268,1.233 0.36,1.4597l0.115,0.2846c0.274,0.6889 0.577,1.5459 0.577,2.4688c0,0.8896 -0.149,1.4901 -0.292,1.992c-0.142,0.5004 -0.249,0.8256 -0.249,1.2747c0,0.3123 0.092,0.4535 0.183,0.5302c0.109,0.0917 0.32,0.1776 0.701,0.1776l8.481,0c0.529,0 0.621,-0.1321 0.639,-0.1602c0.057,-0.0863 0.095,-0.2732 0.071,-0.7227c-0.041,-0.7763 -0.275,-2.1318 0.429,-3.3706c0.404,-0.7121 0.828,-1.0903 0.828,-2.2618l0,-7.6222c0,-0.4066 -0.12,-0.6556 -0.246,-0.7961c-0.128,-0.142 -0.291,-0.2066 -0.449,-0.2066c-0.273,0 -0.704,0.221 -0.712,1.0084l0,2.3291c0.003,0.3411 0.007,0.6672 0.005,0.989l-0.005,0.4083c-0.007,0.3084 -0.259,0.554 -0.566,0.5508c-0.306,-0.0033 -0.553,-0.2541 -0.553,-0.5625l0,-1.3781c-0.001,-0.0913 -0.002,-0.1844 -0.003,-0.2793c-0.006,-0.5994 -0.012,-1.2699 0.003,-2.0733l0,-6.4323c0,-0.2737 -0.06,-0.4782 -0.142,-0.6266l-0.037,-0.0603c-0.203,-0.3075 -0.553,-0.4102 -0.845,-0.3204c-0.256,0.0785 -0.564,0.344 -0.564,1.0073l0,5.274l-0.003,0.0574c-0.029,0.2838 -0.267,0.5051 -0.556,0.5051c-0.309,0 -0.56,-0.2518 -0.56,-0.5625l0,-8.2684c0,-0.3081 -0.106,-0.4944 -0.227,-0.6072c-0.131,-0.1208 -0.317,-0.1914 -0.518,-0.1914c-0.201,0 -0.387,0.0706 -0.517,0.1914c-0.122,0.1128 -0.228,0.2991 -0.228,0.6072l0,8.2684l-0.003,0.0574c-0.028,0.2838 -0.267,0.5051 -0.556,0.5051c-0.309,0 -0.56,-0.2518 -0.56,-0.5625zm6.435,-0.8046c0.22,-0.101 0.461,-0.1546 0.712,-0.1546c0.47,0 0.935,0.1963 1.277,0.576c0.344,0.3813 0.537,0.915 0.537,1.5518l0,7.0597l1.426,0c0.372,0 0.576,-0.1183 0.69,-0.229c0.115,-0.1108 0.173,-0.2468 0.194,-0.348l0,-12.2901c0,-0.5885 -0.187,-0.8121 -0.318,-0.9109c-0.161,-0.1216 -0.38,-0.1599 -0.566,-0.1599l-3.987,0c0.023,0.1392 0.035,0.2845 0.035,0.4356l0,4.4694zm-2.707,-6.4614c0.076,-0.0357 0.155,-0.0661 0.237,-0.0911c0.66,-0.2029 1.407,-0.0184 1.907,0.5225l4.515,0c0.294,0 0.797,0.0525 1.237,0.3845c0.361,0.2718 0.617,0.6834 0.718,1.2488l6.165,0c0.309,0 0.559,0.2518 0.559,0.5625c0,0.3107 -0.25,0.5625 -0.559,0.5625l-6.117,0l0,2.7726l2.869,0l0.057,0.0028c0.282,0.0288 0.502,0.2684 0.502,0.5597c0,0.2913 -0.22,0.5309 -0.502,0.5597l-0.057,0.0028l-2.869,0l0,2.7811l7.2,0c0.309,0 0.559,0.2518 0.559,0.5625c0,0.3107 -0.25,0.5625 -0.559,0.5625l-7.2,0l0,3.2306l9.004,0l0.057,0.0028c0.282,0.0288 0.502,0.2684 0.502,0.5597c0,0.2913 -0.22,0.5309 -0.502,0.5597l-0.057,0.0028l-9.083,0c-0.083,0.2458 -0.228,0.5058 -0.459,0.7281c-0.339,0.3279 -0.828,0.5423 -1.465,0.5423l-1.457,0c-0.135,1.17 -0.669,1.7713 -0.945,2.2571c-0.497,0.8752 -0.334,1.7883 -0.283,2.752c0.023,0.4204 0.031,0.9717 -0.256,1.4058c-0.325,0.4926 -0.891,0.6628 -1.571,0.6628l-8.481,0c-0.521,0 -1.032,-0.1138 -1.419,-0.4395c-0.405,-0.3407 -0.584,-0.8347 -0.584,-1.3933c0,-0.6398 0.164,-1.1314 0.292,-1.5838c0.128,-0.4508 0.25,-0.9392 0.25,-1.6829c0,-0.6777 -0.217,-1.3331 -0.47,-1.9782l-4.926,0c-0.252,0 -0.768,0.0067 -1.223,-0.1762c-0.24,-0.0966 -0.49,-0.2556 -0.677,-0.5164c-0.19,-0.2644 -0.283,-0.5889 -0.283,-0.9588c0,-0.3108 0.25,-0.5626 0.559,-0.5626c0.309,0 0.559,0.2518 0.559,0.5626c0,0.1744 0.042,0.2583 0.072,0.3002c0.033,0.0453 0.088,0.0906 0.185,0.1301c0.222,0.0892 0.518,0.096 0.808,0.096l4.552,0c-0.067,-0.2739 -0.133,-0.5851 -0.191,-0.912c-0.128,-0.7207 -0.229,-1.5669 -0.229,-2.3366l0,-7.8037c0,-0.6626 0.21,-1.2141 0.575,-1.6049c0.362,-0.3878 0.849,-0.5852 1.337,-0.5863c0.272,-0.0006 0.544,0.0599 0.795,0.1811l0,-0.8755l-7.2,0c-0.323,0 -0.471,0.1227 -0.556,0.2425c-0.107,0.1484 -0.148,0.3437 -0.148,0.4654l0,8.1666c0,0.3107 -0.25,0.5625 -0.559,0.5625c-0.309,0 -0.559,-0.2518 -0.559,-0.5625l0,-8.1666c0,-0.3018 0.085,-0.7418 0.358,-1.1226c0.293,-0.4095 0.776,-0.7103 1.464,-0.7103l7.284,0c0.1,-0.3205 0.286,-0.588 0.529,-0.7901c0.362,-0.3001 0.822,-0.4349 1.259,-0.4349c0.25,0 0.509,0.0444 0.752,0.1393l0,-0.3481c0,-0.5993 0.221,-1.0936 0.588,-1.4345c0.359,-0.3327 0.825,-0.4891 1.276,-0.4891c0.451,0 0.917,0.1563 1.276,0.4891c0.368,0.3409 0.588,0.8352 0.588,1.4345l0,1.0024z"/>
   <path id="svg_14" fill="#428DFF" d="m127.92161,58.96043c-0.218,0.2197 -0.572,0.2196 -0.791,0c-0.218,-0.2198 -0.218,-0.5757 0,-0.7954l0.902,-0.90745c0.219,-0.21971 0.573,-0.21971 0.791,0c0.219,0.21971 0.219,0.57565 0,0.79535l-0.902,0.9075z"/>
   <path id="svg_15" fill="#428DFF" d="m125.63961,59.02003c0.219,0.1803 0.543,0.1673 0.748,-0.0387c0.205,-0.206 0.218,-0.5319 0.039,-0.7528l-0.039,-0.0426l-0.902,-0.90737c-0.219,-0.21969 -0.573,-0.21965 -0.791,0c-0.218,0.21967 -0.218,0.57567 0,0.79537l0.902,0.9074l0.043,0.0387z"/>
   <path id="svg_16" fill="#428DFF" d="m125.44261,61.44913c-0.219,0.1803 -0.544,0.1674 -0.748,-0.0386c-0.219,-0.2197 -0.219,-0.5757 0,-0.7954l0.902,-0.9074c0.218,-0.2197 0.572,-0.2197 0.791,0c0.218,0.2197 0.218,0.5756 0,0.7954l-0.902,0.9074l-0.043,0.0386z"/>
   <path id="svg_17" fill="#428DFF" d="m128.07461,61.47003c0.22,0.1803 0.544,0.1673 0.749,-0.0386c0.218,-0.2197 0.218,-0.5758 0,-0.7954l-0.902,-0.9075l-0.043,-0.0386c-0.219,-0.1803 -0.544,-0.1674 -0.749,0.0386c-0.218,0.2197 -0.218,0.5758 0,0.7954l0.903,0.9075l0.042,0.0386z"/>
   <path id="svg_18" fill="#428DFF" d="m140.09861,70.75483c-0.309,0 -0.559,-0.2517 -0.559,-0.5624c0,-0.3107 0.25,-0.5625 0.559,-0.5625l1.276,0c0.309,0 0.559,0.2518 0.559,0.5625c0,0.3107 -0.25,0.5624 -0.559,0.5624l-1.276,0z"/>
   <path id="svg_19" fill="#428DFF" d="m138.44361,69.17373c0.028,0.2838 0.266,0.5051 0.556,0.5051c0.29,-0.0001 0.528,-0.2213 0.557,-0.5051l0.002,-0.0574l0,-1.2832c0,-0.3107 -0.25,-0.5624 -0.559,-0.5625c-0.309,0 -0.559,0.2517 -0.559,0.5625l0,1.2832l0.003,0.0574z"/>
   <path id="svg_20" fill="#428DFF" d="m136.59661,70.75203c-0.282,-0.0287 -0.502,-0.2683 -0.502,-0.5597c0,-0.3107 0.25,-0.5624 0.559,-0.5624l1.276,0c0.309,0 0.559,0.2517 0.559,0.5624c0,0.3107 -0.25,0.5625 -0.559,0.5625l-1.276,0l-0.057,-0.0028z"/>
   <path id="svg_21" fill="#428DFF" d="m138.44261,72.63863c0.028,0.2837 0.267,0.505 0.556,0.505c0.309,0 0.56,-0.2518 0.56,-0.5624l0,-1.2833l-0.003,-0.0574c-0.029,-0.2838 -0.267,-0.5053 -0.557,-0.5053c-0.309,0.0001 -0.559,0.2519 -0.559,0.5624l0,1.2833l0.003,0.0577z"/>
  </g>
 </g>
</svg>